<svg width="220" height="54" viewBox="0 0 220 54" fill="none" xmlns="http://www.w3.org/2000/svg">
<path d="M89.5836 33.75V41H85.2336C82.1336 41 79.7169 40.25 77.9836 38.75C76.2503 37.2167 75.3836 34.7333 75.3836 31.3V20.2H71.9836V13.1H75.3836V6.3H83.9336V13.1H89.5336V20.2H83.9336V31.4C83.9336 32.2333 84.1336 32.8333 84.5336 33.2C84.9336 33.5667 85.6003 33.75 86.5336 33.75H89.5836ZM121.896 13.1V41H113.346V37.2C112.479 38.4333 111.296 39.4333 109.796 40.2C108.329 40.9333 106.696 41.3 104.896 41.3C102.763 41.3 100.879 40.8333 99.2461 39.9C97.6128 38.9333 96.3461 37.55 95.4461 35.75C94.5461 33.95 94.0961 31.8333 94.0961 29.4V13.1H102.596V28.25C102.596 30.1167 103.079 31.5667 104.046 32.6C105.013 33.6333 106.313 34.15 107.946 34.15C109.613 34.15 110.929 33.6333 111.896 32.6C112.863 31.5667 113.346 30.1167 113.346 28.25V13.1H121.896ZM145.038 12.8C148.304 12.8 150.904 13.8667 152.838 16C154.804 18.1 155.788 21 155.788 24.7V41H147.288V25.85C147.288 23.9833 146.804 22.5333 145.838 21.5C144.871 20.4667 143.571 19.95 141.938 19.95C140.304 19.95 139.004 20.4667 138.038 21.5C137.071 22.5333 136.588 23.9833 136.588 25.85V41H128.038V13.1H136.588V16.8C137.454 15.5667 138.621 14.6 140.088 13.9C141.554 13.1667 143.204 12.8 145.038 12.8ZM166.029 10.2C164.529 10.2 163.296 9.76666 162.329 8.9C161.396 8 160.929 6.9 160.929 5.6C160.929 4.26667 161.396 3.16666 162.329 2.3C163.296 1.4 164.529 0.949997 166.029 0.949997C167.496 0.949997 168.696 1.4 169.629 2.3C170.596 3.16666 171.079 4.26667 171.079 5.6C171.079 6.9 170.596 8 169.629 8.9C168.696 9.76666 167.496 10.2 166.029 10.2ZM170.279 13.1V41H161.729V13.1H170.279ZM193.475 12.8C196.742 12.8 199.342 13.8667 201.275 16C203.242 18.1 204.225 21 204.225 24.7V41H195.725V25.85C195.725 23.9833 195.242 22.5333 194.275 21.5C193.308 20.4667 192.008 19.95 190.375 19.95C188.742 19.95 187.442 20.4667 186.475 21.5C185.508 22.5333 185.025 23.9833 185.025 25.85V41H176.475V13.1H185.025V16.8C185.892 15.5667 187.058 14.6 188.525 13.9C189.992 13.1667 191.642 12.8 193.475 12.8Z" fill="white"/>
<mask id="path-2-inside-1_3024_722" fill="white">
<path d="M15 4C15 2.34315 16.3431 1 18 1H52C53.6569 1 55 2.34315 55 4V38C55 39.6569 53.6569 41 52 41H18C16.3431 41 15 39.6569 15 38V4Z"/>
</mask>
<path d="M15 4C15 2.34315 16.3431 1 18 1H52C53.6569 1 55 2.34315 55 4V38C55 39.6569 53.6569 41 52 41H18C16.3431 41 15 39.6569 15 38V4Z" fill="white"/>
<path d="M15 1H55H15ZM55 38C55 40.7614 52.7614 43 50 43H18C15.2386 43 13 40.7614 13 38H17C17 38.5523 17.4477 39 18 39H52C53.6569 39 55 38.5523 55 38ZM18 43C15.2386 43 13 40.7614 13 38V6C13 3.23858 15.2386 1 18 1C17.4477 1 17 2.34315 17 4V38C17 38.5523 17.4477 39 18 39V43ZM55 1V41V1Z" fill="url(#paint0_linear_3024_722)" mask="url(#path-2-inside-1_3024_722)"/>
<mask id="path-4-inside-2_3024_722" fill="white">
<path d="M0 17C0 15.3431 1.34315 14 3 14H37C38.6569 14 40 15.3431 40 17V51C40 52.6569 38.6569 54 37 54H3C1.34315 54 0 52.6569 0 51V17Z"/>
</mask>
<path d="M0 17C0 15.3431 1.34315 14 3 14H37C38.6569 14 40 15.3431 40 17V51C40 52.6569 38.6569 54 37 54H3C1.34315 54 0 52.6569 0 51V17Z" fill="white"/>
<path d="M0 17C0 13.134 3.13401 10 7 10H37C40.866 10 44 13.134 44 17L36 18H3C1.34315 18 0 18 0 18V17ZM40 54H0H40ZM0 54V14V54ZM37 10C40.866 10 44 13.134 44 17V47C44 50.866 40.866 54 37 54H36C36 54 36 52.6569 36 51V18L37 10Z" fill="url(#paint1_linear_3024_722)" mask="url(#path-4-inside-2_3024_722)"/>
<defs>
<linearGradient id="paint0_linear_3024_722" x1="35" y1="1" x2="35" y2="41" gradientUnits="userSpaceOnUse">
<stop stop-color="#53FF9E"/>
<stop offset="1" stop-color="#3665EF"/>
</linearGradient>
<linearGradient id="paint1_linear_3024_722" x1="2.5" y1="15.5" x2="40" y2="54" gradientUnits="userSpaceOnUse">
<stop stop-color="#53FF9E"/>
<stop offset="1" stop-color="#3665EF"/>
</linearGradient>
</defs>
</svg>
